<svg id="Capa_1" data-name="Capa 1" xmlns="http://www.w3.org/2000/svg" viewBox="0 0 698.85 698.85"><defs><style>.cls-1{fill:#fff;}</style></defs><title>octagon</title><polygon class="cls-1" points="209.87 686.35 12.5 488.98 12.5 209.87 209.87 12.5 488.98 12.5 686.35 209.87 686.35 488.98 488.98 686.35 209.87 686.35"/><path d="M1094,215.15l190,190V674L1094,864H825.25l-190-190V405.19l190-190H1094m10.36-25H814.9L610.21,394.84V684.31L814.9,889h289.47l204.69-204.69V394.84L1104.37,190.15Z" transform="translate(-610.21 -190.15)"/><polygon points="229.67 638.52 60.32 469.18 60.32 229.68 229.67 60.34 469.16 60.34 638.51 229.68 638.51 469.18 469.16 638.52 229.67 638.52"/></svg>